<?xml version="1.0" standalone="no"?><svg xmlns="http://www.w3.org/2000/svg" viewBox="0 0 1440 320"><path fill="#ffffff" fill-opacity="1" d="M0,32L12.6,58.7C25.3,85,51,139,76,176C101.1,213,126,235,152,240C176.8,245,202,235,227,224C252.6,213,278,203,303,186.7C328.4,171,354,149,379,128C404.2,107,429,85,455,106.7C480,128,505,192,531,192C555.8,192,581,128,606,138.7C631.6,149,657,235,682,224C707.4,213,733,107,758,74.7C783.2,43,808,85,834,128C858.9,171,884,213,909,197.3C934.7,181,960,107,985,69.3C1010.5,32,1036,32,1061,64C1086.3,96,1112,160,1137,186.7C1162.1,213,1187,203,1213,197.3C1237.9,192,1263,192,1288,165.3C1313.7,139,1339,85,1364,74.7C1389.5,64,1415,96,1427,112L1440,128L1440,320L1427.4,320C1414.7,320,1389,320,1364,320C1338.9,320,1314,320,1288,320C1263.2,320,1238,320,1213,320C1187.4,320,1162,320,1137,320C1111.6,320,1086,320,1061,320C1035.8,320,1011,320,985,320C960,320,935,320,909,320C884.2,320,859,320,834,320C808.4,320,783,320,758,320C732.6,320,707,320,682,320C656.8,320,632,320,606,320C581.1,320,556,320,531,320C505.3,320,480,320,455,320C429.5,320,404,320,379,320C353.7,320,328,320,303,320C277.9,320,253,320,227,320C202.1,320,177,320,152,320C126.3,320,101,320,76,320C50.5,320,25,320,13,320L0,320Z"></path></svg>